<svg xmlns="http://www.w3.org/2000/svg" version="1.1" xmlns:xlink="http://www.w3.org/1999/xlink" xmlns:svgjs="http://svgjs.dev/svgjs" width="330" height="189.09"><g><svg viewBox="0 0 395.52 100.96486780471211" height="100.96486780471211" width="330" xmlns="http://www.w3.org/2000/svg" version="1.1" xmlns:xlink="http://www.w3.org/1999/xlink" xmlns:svgjs="http://svgjs.com/svgjs" x="0" y="44.062566097643945" viewbox="0 0 330 189.09"><g><svg viewBox="0 0 564.1258980948353 144.00509892384594" height="100.96486780471211" width="395.52"><g transform="matrix(1,0,0,1,168.60589809483537,19.90229659511909)"><svg viewBox="0 0 395.52 104.20050573360776" height="104.20050573360776" width="395.52"><g><svg viewBox="0 0 395.52 104.20050573360776" height="104.20050573360776" width="395.52"><g><svg viewBox="0 0 395.52 104.20050573360776" height="104.20050573360776" width="395.52"><g transform="matrix(1,0,0,1,0,0)"><svg width="395.52" viewBox="2.1500000953674316 -33.70000076293945 170.04000854492188 44.80000305175781" height="104.20050573360776" data-palette-color="#31c48d"><path d="M26.05-9.05Q26.05-6.7 24.98-5.03 23.9-3.35 21.45-1.95L21.45-1.95Q19.8-0.95 17.6-0.45 15.4 0.05 13.15 0.05L13.15 0.05Q10.85 0.05 7.45-1.45L7.45-1.45Q5-2.65 3.58-4.3 2.15-5.95 2.15-7.9L2.15-7.9Q2.15-9.25 2.75-9.88 3.35-10.5 4.7-10.5L4.7-10.5Q5.4-10.5 6.15-9.93 6.9-9.35 7.05-8.8L7.05-8.8Q7.75-6.75 9.5-5.68 11.25-4.6 13.85-4.6L13.85-4.6Q16.85-4.6 18.88-5.7 20.9-6.8 20.9-8.65L20.9-8.65Q20.9-10.45 18.7-11.85 16.5-13.25 14.2-13.8L14.2-13.8Q10.9-14.7 8.35-15.95L8.35-15.95Q5.7-17.25 4.4-19.15 3.1-21.05 3.1-23.15L3.1-23.15Q3.1-25.1 4.45-27.13 5.8-29.15 7.65-30.05L7.65-30.05Q8.65-30.55 11.08-31.13 13.5-31.7 14.6-31.7L14.6-31.7Q16.05-31.7 17.8-31.35 19.55-31 20.65-30.35L20.65-30.35Q22.85-29.1 23.9-28.1 24.95-27.1 24.95-25.6L24.95-25.6Q24.95-24.7 24.28-24 23.6-23.3 21.95-23.3L21.95-23.3Q21.55-23.3 21.15-23.65 20.75-24 20.15-24.7L20.15-24.7Q19.35-25.75 18.6-26.1L18.6-26.1Q17.85-26.35 16.43-26.65 15-26.95 13.9-26.95L13.9-26.95Q12.7-26.95 11.4-26.45 10.1-25.95 9.22-25.03 8.35-24.1 8.35-22.9L8.35-22.9Q8.35-21.9 9.28-21.18 10.2-20.45 11.5-20L11.5-20Q13-19.4 14.75-18.95L14.75-18.95Q17.05-18.25 18.53-17.68 20-17.1 21.4-16.25L21.4-16.25Q23.85-14.8 24.95-13.28 26.05-11.75 26.05-9.05L26.05-9.05ZM53.5-2.4Q53.5-1.3 52.32-0.55 51.15 0.2 50.15 0.2L50.15 0.2Q48.25 0.2 47.12-0.28 46-0.75 45.05-2.05L45.05-2.05Q43.75-0.9 41.5-0.33 39.25 0.25 37.35 0.25L37.35 0.25Q34.25 0.25 32.25-1.43 30.25-3.1 30.25-6.35L30.25-6.35Q30.25-7.75 31-8.93 31.75-10.1 33.05-11L33.05-11Q34.5-11.95 36.35-12.48 38.2-13 40.2-13L40.2-13Q41.25-13 42.7-12.6 44.15-12.2 44.95-11.75L44.95-11.75 44.95-12.55Q44.95-15.25 43.65-16.28 42.35-17.3 39.45-17.3L39.45-17.3Q38.6-17.3 37.77-16.95 36.95-16.6 35.9-16L35.9-16Q34.5-15.25 33.25-15.25L33.25-15.25Q32.8-15.25 32.4-15.88 32-16.5 32-17L32-17Q32-18.45 33.37-19.5 34.75-20.55 36.65-21.08 38.55-21.6 40.05-21.6L40.05-21.6Q41.55-21.6 43.5-21.03 45.45-20.45 46.7-19.45L46.7-19.45Q48.2-18.15 49.02-16.43 49.85-14.7 49.85-12.65L49.85-12.65Q49.85-12 49.75-10.7L49.75-10.7Q49.65-9.3 49.65-8.3L49.65-8.3Q49.65-7.85 49.55-6.95L49.55-6.95Q49.45-5.85 49.45-5.2L49.45-5.2Q49.45-4.6 49.9-4.17 50.35-3.75 50.95-3.75L50.95-3.75 52.35-3.8Q52.9-3.8 53.2-3.4 53.5-3 53.5-2.4L53.5-2.4ZM37.4-3.7Q39.55-3.7 41-4.15 42.45-4.6 44.5-5.8L44.5-5.8Q44.7-6.65 44.75-8.05L44.75-8.05Q42-9.35 40.2-9.35L40.2-9.35Q38.15-9.35 36.55-8.6 34.95-7.85 34.95-5.95L34.95-5.95Q34.95-5 35.75-4.35 36.55-3.7 37.4-3.7L37.4-3.7ZM71.45-26.05Q70.75-26.05 70.09-26.4 69.45-26.75 69.2-27.45L69.2-27.45Q68.7-28.8 68.12-29.38 67.55-29.95 66.75-29.95L66.75-29.95Q66.25-29.95 65.82-29.2 65.4-28.45 65.2-26.85L65.2-26.85Q64.84-23.55 64.84-21.8L64.84-21.8Q65.59-21.65 66.95-21.65L66.95-21.65Q67.65-21.65 68.75-21.75L68.75-21.75 70.09-21.8Q71-21.8 71.5-21.45 72-21.1 72-20.3L72-20.3Q72-19.15 71.3-18.4 70.59-17.65 69.65-17.65L69.65-17.65Q66.05-17.65 64.8-17.3L64.8-17.3Q64.8-14.3 65.09-8.7L65.09-8.7Q65.09-7.85 65.2-6.25L65.2-6.25 65.4-2.4Q65.5-0.95 65.12-0.38 64.75 0.2 63.55 0.2L63.55 0.2Q61.35 0.2 60.7-2.45L60.7-2.45Q60.3-4.35 60.07-7.88 59.85-11.4 59.85-14.1L59.85-14.1Q59.85-15.5 60-17.35L60-17.35Q59.9-17.4 59.45-17.4L59.45-17.4Q59-17.4 58.8-17.35L58.8-17.35Q57.3-17.25 56.6-17.25L56.6-17.25Q56.15-17.25 55.7-17.9 55.25-18.55 55.25-19.4L55.25-19.4Q55.25-19.9 55.6-20.33 55.95-20.75 56.45-20.95L56.45-20.95Q57.2-21.35 58.6-21.35L58.6-21.35 60.1-21.35Q60.1-28.35 61.65-31.1L61.65-31.1Q63.15-33.7 66.59-33.7L66.59-33.7Q68.2-33.7 69.67-33.05 71.15-32.4 72.07-31.25 73-30.1 73-28.65L73-28.65Q73-27.1 72.59-26.58 72.2-26.05 71.45-26.05L71.45-26.05ZM75.34-10.6Q75.34-12.5 76.04-14.43 76.74-16.35 77.89-17.95L77.89-17.95Q79.04-19.55 81.54-20.58 84.04-21.6 85.99-21.6L85.99-21.6Q87.99-21.6 90.07-21.05 92.14-20.5 92.94-19.35L92.94-19.35Q94.79-16.75 94.79-14.25L94.79-14.25Q94.79-12.9 94.22-11.95 93.64-11 92.59-9.9L92.59-9.9Q91.74-9 89.92-8.7 88.09-8.4 86.29-8.4L86.29-8.4Q85.14-8.4 83.49-8.63 81.84-8.85 80.29-9.2L80.29-9.2Q80.39-8.2 80.79-7.25 81.19-6.3 81.74-5.8L81.74-5.8Q82.74-4.85 83.82-4.6 84.89-4.35 86.59-4.35L86.59-4.35Q88.39-4.35 89.94-4.95L89.94-4.95Q91.19-5.4 91.99-5.4L91.99-5.4Q92.94-5.4 93.44-4.83 93.94-4.25 93.94-3.35L93.94-3.35Q93.94-2.1 92.49-1.3 91.04-0.5 89.17-0.13 87.29 0.25 86.14 0.25L86.14 0.25Q83.79 0.25 81.59-0.6 79.39-1.45 77.94-3L77.94-3Q76.74-4.4 76.04-6.38 75.34-8.35 75.34-10.6L75.34-10.6ZM86.24-17.35Q85.14-17.35 84.04-16.93 82.94-16.5 82.24-15.75L82.24-15.75Q81.34-14.8 81.02-14.23 80.69-13.65 80.59-12.65L80.59-12.65Q81.84-12.25 85.79-12.25L85.79-12.25Q87.94-12.25 89.12-12.9 90.29-13.55 90.29-14.6L90.29-14.6Q90.29-15.65 88.99-16.5 87.69-17.35 86.24-17.35L86.24-17.35ZM100.74-17.4Q100.29-17.4 99.89-17.32 99.49-17.25 99.09-17.25L99.09-17.25Q98.54-17.25 98.06-17.75 97.59-18.25 97.59-18.65L97.59-18.65Q97.59-19.95 98.89-20.68 100.19-21.4 101.54-21.4L101.54-21.4Q102.69-21.4 103.91-20.63 105.14-19.85 105.74-18.65L105.74-18.65Q107.04-20.2 108.94-20.9 110.84-21.6 112.89-21.6L112.89-21.6Q115.19-21.6 117.16-20.15 119.14-18.7 120.29-16.48 121.44-14.25 121.44-12.05L121.44-12.05Q121.44-9.9 120.99-8.22 120.54-6.55 119.39-4.85L119.39-4.85Q118.09-3.05 115.91-1.9 113.74-0.75 110.74-0.75L110.74-0.75Q109.94-0.75 108.79-1.18 107.64-1.6 106.89-2.1L106.89-2.1Q106.54 1.3 106.54 3.8L106.54 3.8Q106.54 5.3 106.69 6.65L106.69 6.65Q106.79 8.25 106.79 8.95L106.79 8.95Q106.79 10.05 106.04 10.58 105.29 11.1 104.39 11.1L104.39 11.1Q102.59 11.1 102.02 10.13 101.44 9.15 101.44 7.35L101.44 7.35Q101.64 3.05 101.94-0.6L101.94-0.6Q102.24-5.1 102.24-14.5L102.24-14.5Q102.24-15.4 101.89-16.4 101.54-17.4 100.74-17.4L100.74-17.4ZM107.09-7.05Q107.34-6.1 108.52-5.48 109.69-4.85 110.64-4.85L110.64-4.85Q113.49-4.85 114.89-6.4L114.89-6.4Q115.94-7.5 116.27-8.55 116.59-9.6 116.59-11.9L116.59-11.9Q116.59-13.7 115.89-14.93 115.19-16.15 114.19-16.73 113.19-17.3 112.29-17.3L112.29-17.3Q110.24-17.3 108.97-16.07 107.69-14.85 107.34-12.75L107.34-12.75Q107.09-11.1 107.09-7.05L107.09-7.05ZM148.79-2.4Q148.79-1.3 147.61-0.55 146.44 0.2 145.44 0.2L145.44 0.2Q143.54 0.2 142.41-0.28 141.29-0.75 140.34-2.05L140.34-2.05Q139.04-0.9 136.79-0.33 134.54 0.25 132.64 0.25L132.64 0.25Q129.54 0.25 127.54-1.43 125.54-3.1 125.54-6.35L125.54-6.35Q125.54-7.75 126.29-8.93 127.04-10.1 128.34-11L128.34-11Q129.79-11.95 131.64-12.48 133.49-13 135.49-13L135.49-13Q136.54-13 137.99-12.6 139.44-12.2 140.24-11.75L140.24-11.75 140.24-12.55Q140.24-15.25 138.94-16.28 137.64-17.3 134.74-17.3L134.74-17.3Q133.89-17.3 133.06-16.95 132.24-16.6 131.19-16L131.19-16Q129.79-15.25 128.54-15.25L128.54-15.25Q128.09-15.25 127.69-15.88 127.29-16.5 127.29-17L127.29-17Q127.29-18.45 128.66-19.5 130.04-20.55 131.94-21.08 133.84-21.6 135.34-21.6L135.34-21.6Q136.84-21.6 138.79-21.03 140.74-20.45 141.99-19.45L141.99-19.45Q143.49-18.15 144.31-16.43 145.14-14.7 145.14-12.65L145.14-12.65Q145.14-12 145.04-10.7L145.04-10.7Q144.94-9.3 144.94-8.3L144.94-8.3Q144.94-7.85 144.84-6.95L144.84-6.95Q144.74-5.85 144.74-5.2L144.74-5.2Q144.74-4.6 145.19-4.17 145.64-3.75 146.24-3.75L146.24-3.75 147.64-3.8Q148.19-3.8 148.49-3.4 148.79-3 148.79-2.4L148.79-2.4ZM132.69-3.7Q134.84-3.7 136.29-4.15 137.74-4.6 139.79-5.8L139.79-5.8Q139.99-6.65 140.04-8.05L140.04-8.05Q137.29-9.35 135.49-9.35L135.49-9.35Q133.44-9.35 131.84-8.6 130.24-7.85 130.24-5.95L130.24-5.95Q130.24-5 131.04-4.35 131.84-3.7 132.69-3.7L132.69-3.7ZM157.53 10.2Q155.63 10.2 154.36 9.58 153.09 8.95 152.46 8.08 151.84 7.2 151.84 6.55L151.84 6.55Q151.84 5.7 152.44 5.23 153.03 4.75 153.88 4.75L153.88 4.75Q154.38 4.75 154.84 5.05 155.28 5.35 155.34 5.4L155.34 5.4Q155.69 5.65 156.03 5.83 156.38 6 156.78 6L156.78 6Q157.88 6 158.59 4.55 159.28 3.1 159.99-0.15L159.99-0.15Q157.74-3.45 156.24-6.75L156.24-6.75 155.09-9.4Q154.84-10 153.71-12.53 152.59-15.05 151.49-17L151.49-17Q150.78-18.4 150.78-18.9L150.78-18.9Q150.78-20.15 151.66-20.75 152.53-21.35 153.69-21.35L153.69-21.35Q154.49-21.35 154.91-21.03 155.34-20.7 155.88-19.85L155.88-19.85Q157.34-17.45 159.03-12.65L159.03-12.65Q160.03-9.9 160.63-8.47 161.24-7.05 162.09-5.6L162.09-5.6Q162.94-7.55 164.24-12.25L164.24-12.25Q165.03-14.95 165.56-16.57 166.09-18.2 166.74-19.55L166.74-19.55Q167.19-20.45 167.86-21 168.53-21.55 169.38-21.55L169.38-21.55Q170.24-21.55 171.21-20.93 172.19-20.3 172.19-19.45L172.19-19.45Q172.19-18.95 171.84-18.25L171.84-18.25Q169.88-13.75 168.41-9.78 166.94-5.8 165.59-1.05L165.59-1.05Q164.78 1.6 163.91 4 163.03 6.4 162.69 6.95L162.69 6.95Q161.69 8.35 160.44 9.28 159.19 10.2 157.53 10.2L157.53 10.2Z" opacity="1" transform="matrix(1,0,0,1,0,0)" fill="#31c48d" class="undefined-text-0" data-fill-palette-color="primary" id="text-0"></path></svg></g></svg></g></svg></g></svg></g><g><svg viewBox="0 0 144.0066595032682 144.00509892384594" height="144.00509892384594" width="144.0066595032682"><g><svg xmlns="http://www.w3.org/2000/svg" xmlns:xlink="http://www.w3.org/1999/xlink" version="1.1" x="0" y="0" viewBox="3.8869991302490234 3.8869991302490234 92.22699737548828 92.22599792480469" enable-background="new 0 0 100 100" xml:space="preserve" height="144.00509892384594" width="144.0066595032682" class="icon-icon-0" data-fill-palette-color="accent" id="icon-0"><g fill="#31c48d" data-fill-palette-color="accent"><path d="M82.767 96.113H17.234c-7.36 0-13.347-5.987-13.347-13.347V17.234c0-7.36 5.987-13.347 13.347-13.347h65.533c7.359 0 13.347 5.987 13.347 13.347v65.533C96.113 90.126 90.126 96.113 82.767 96.113zM17.234 9.887c-4.051 0-7.347 3.296-7.347 7.347v65.533c0 4.051 3.296 7.347 7.347 7.347h65.533c4.051 0 7.347-3.296 7.347-7.347V17.234c0-4.051-3.296-7.347-7.347-7.347H17.234z" fill="#31c48d" data-fill-palette-color="accent"></path></g><path d="M62.909 50c0-0.633 0.515-1.146 1.147-1.146h6.178c-0.266-4.737-2.146-9.031-5.113-12.352l-4.37 4.37c-0.447 0.448-1.173 0.448-1.622-0.001-0.448-0.448-0.448-1.174 0-1.621l4.37-4.37c-3.32-2.967-7.614-4.848-12.352-5.114v6.178c0 0.633-0.513 1.146-1.147 1.146-0.633 0-1.146-0.514-1.146-1.146v-6.178c-4.737 0.265-9.031 2.146-12.352 5.113l4.371 4.371c0.448 0.448 0.448 1.173 0 1.621s-1.174 0.449-1.622 0.001l-4.371-4.371c-2.967 3.321-4.848 7.615-5.113 12.352h6.178c0.633 0 1.146 0.513 1.146 1.146 0 0.633-0.513 1.147-1.146 1.147h-6.178c0.266 4.737 2.146 9.031 5.113 12.352l4.371-4.371c0.448-0.448 1.174-0.447 1.622 0 0.449 0.449 0.449 1.175 0 1.623l-4.371 4.37c3.321 2.967 7.615 4.848 12.352 5.113v-6.178c0-0.634 0.514-1.147 1.146-1.147 0.635 0 1.147 0.514 1.147 1.147v6.178c4.736-0.266 9.03-2.146 12.351-5.113l-4.37-4.37c-0.447-0.447-0.447-1.176 0.001-1.623 0.447-0.447 1.175-0.446 1.622 0l4.37 4.37c2.967-3.32 4.848-7.614 5.113-12.351h-6.178C63.424 51.147 62.909 50.633 62.909 50z" fill="#31c48d" data-fill-palette-color="accent"></path></svg></g></svg></g></svg></g></svg></g></svg>